<svg xmlns="http://www.w3.org/2000/svg" version="1.1" xmlns:xlink="http://www.w3.org/1999/xlink" width="1500" height="68" viewBox="0 0 1500 68"><svg xml:space="preserve" width="1500" height="68" data-version="2" data-id="lg_NSRCYIMs8VdeXyD1zC" viewBox="0 0 681 68" x="0" y="0"><rect width="100%" height="100%" fill="transparent"></rect><path fill="#111" d="M34.425 51.295v14.1H6.315v-14.1h6.33l10.97-35.51h-8.37v-14.1h39.68l14.21 49.61h6.29v14.1h-35.84v-14.1h5.21l-1.72-6.8h-14.46l-1.8 6.8Zm6.72-16.49-4.64-19.5-5.85 19.5Z"></path><rect width="69.11" height="63.71" x="-34.55" y="-31.86" fill="none" rx="0" ry="0" transform="translate(41.37 34.04)"></rect><path fill="#111" d="M104.215 51.055v14.34h-25.51v-14.34h6.49v-35.35h-6.33v-14.1h29.43l19.94 37.88v-23.7h-6.41v-14.1h25.51v14.1h-6.33v49.61h-24.26l-18.94-35.2v20.86Z"></path><rect width="68.63" height="63.79" x="-34.31" y="-31.89" fill="none" rx="0" ry="0" transform="translate(113.52 34)"></rect><path fill="#111" d="M182.605 66.555q-3.28 0-5.6-.48-2.33-.48-4.31-1.56-1.98-1.09-4.22-2.81l-1.4 3.69h-12.94v-19.5h12.86q1.24 3.36 3.82 4.74 2.58 1.38 6.35 1.38 2.32 0 3.96-.94 1.64-.94 1.64-2.5 0-1.96-1.68-2.94t-4.72-1.83q-3.89-1.04-7.03-2.2-3.14-1.16-5.63-2.4-4.96-2.48-8-7.05-3.05-4.56-3.05-12.13 0-5.8 2.53-10.25 2.48-4.4 7.14-6.86 4.67-2.47 10.99-2.47 7.73 0 12.21 4.93l2.05-3.77h11.49v19.1h-12.29q-1.73-3.6-3.81-5t-5.72-1.4q-2.77 0-4.29.98t-1.52 2.7q0 1.92 2.2 2.92 2.17 1.04 6.17 1.92 7.01 1.61 12.09 4.05 4.97 2.44 7.95 6.91 2.98 4.46 2.98 11.51 0 5.96-2.48 10.81-2.52 4.84-7.15 7.64-4.62 2.81-10.59 2.81"></path><rect width="50.17" height="66.11" x="-25.09" y="-33.05" fill="none" rx="0" ry="0" transform="translate(178.24 34)"></rect><path fill="#111" d="M254.475 50.975v14.42h-35.67v-14.42h6.56v-35.19h-5.64l-1.72 10.97h-11.25V1.685h59.93v25.07h-11.21l-1.72-10.97h-5.84v35.19Z"></path><rect width="59.93" height="63.71" x="-29.96" y="-31.86" fill="none" rx="0" ry="0" transform="translate(237.22 34.04)"></rect><path fill="#111" d="M327.345 38.245v27.15h-53.77v-14.1h7.73v-35.51h-7.73v-14.1h53.77v25.35h-10.25l-3.84-11.25h-11.45v10.41h10.25v10.49h-10.25v14.61h11.45l3.84-13.05Z"></path><rect width="53.77" height="63.71" x="-26.89" y="-31.86" fill="none" rx="0" ry="0" transform="translate(300.96 34.04)"></rect><path fill="#111" d="M377.555 51.055v14.34h-34.75v-14.34h6.12v-11.73l-16.77-23.54h-4.53v-14.1h34.12v14.1h-3.61l7.29 10.65 5.73-10.65h-5.81v-14.1h25.51v14.1h-7.21l-12.37 21.38v13.89Z"></path><rect width="63.23" height="63.71" x="-31.61" y="-31.86" fill="none" rx="0" ry="0" transform="translate(359.74 34.04)"></rect><path fill="#111" d="M470.405 37.005v28.39h-51.17v-14.34h6.41v-35.27h-6.41v-14.1h33.28v14.1h-6.37v35.27h10.25l3.84-14.05Z"></path><rect width="51.17" height="63.71" x="-25.59" y="-31.86" fill="none" rx="0" ry="0" transform="translate(445.32 34.04)"></rect><path fill="#111" d="M500.915 51.295v14.1h-28.11v-14.1h6.33l10.97-35.51h-8.37v-14.1h39.68l14.22 49.61h6.28v14.1h-35.83v-14.1h5.2l-1.72-6.8h-14.45l-1.81 6.8Zm6.73-16.49-4.65-19.5-5.84 19.5Z"></path><rect width="69.11" height="63.71" x="-34.55" y="-31.86" fill="none" rx="0" ry="0" transform="translate(507.86 34.04)"></rect><path fill="#111" d="M570.705 51.055v14.34h-25.5v-14.34h6.48v-35.35h-6.32v-14.1h29.42l19.94 37.88v-23.7h-6.4v-14.1h25.5v14.1h-6.32v49.61h-24.27l-18.94-35.2v20.86Z"></path><rect width="68.62" height="63.79" x="-34.31" y="-31.89" fill="none" rx="0" ry="0" transform="translate(580.01 34)"></rect><path fill="#111" d="M673.685 38.245v27.15h-53.77v-14.1h7.73v-35.51h-7.73v-14.1h53.77v25.35h-10.25l-3.84-11.25h-11.45v10.41h10.25v10.49h-10.25v14.61h11.45l3.84-13.05Z"></path><rect width="53.77" height="63.71" x="-26.89" y="-31.86" fill="none" rx="0" ry="0" transform="translate(647.3 34.04)"></rect></svg></svg>